<?xml version="1.0" encoding="UTF-8" standalone="no"?>
<svg
   width="22"
   height="22"
   viewBox="0 0 22 22"
   version="1.1"
   id="svg2"
   sodipodi:docname="skull.svg"
   inkscape:version="1.4.3 (0d15f75042, 2025-12-25)"
   xmlns:inkscape="http://www.inkscape.org/namespaces/inkscape"
   xmlns:sodipodi="http://sodipodi.sourceforge.net/DTD/sodipodi-0.dtd"
   xmlns="http://www.w3.org/2000/svg"
   xmlns:svg="http://www.w3.org/2000/svg">
  <defs
     id="defs2" />
  <sodipodi:namedview
     id="namedview2"
     pagecolor="#505050"
     bordercolor="#ffffff"
     borderopacity="1"
     inkscape:showpageshadow="0"
     inkscape:pageopacity="0"
     inkscape:pagecheckerboard="1"
     inkscape:deskcolor="#505050"
     inkscape:zoom="8.8472222"
     inkscape:cx="-2.0345369"
     inkscape:cy="16.897959"
     inkscape:window-width="1536"
     inkscape:window-height="888"
     inkscape:window-x="0"
     inkscape:window-y="0"
     inkscape:window-maximized="1"
     inkscape:current-layer="svg2" />
  <rect
     style="color:#da4453;fill:currentColor;fill-opacity:1;stroke:none"
     class="ColorScheme-NegativeText"
     height="22"
     rx="2"
     width="22"
     id="rect1"
     x="0"
     y="0" />
  <g
     id="g2"
     transform="scale(0.61111111)">
    <path
       fill="#ccd6dd"
       d="M 34,16 C 34,6 26.837,0 18,0 9.163,0 2,6 2,16 2,21.574 2.002,26.388 8,28.64 V 33 a 3,3 0 1 0 6,0 v -3.155 q 0.487,0.04 1,0.07 V 33 a 3,3 0 1 0 6,0 v -3.085 q 0.513,-0.03 1,-0.07 V 33 a 3,3 0 0 0 6,0 V 28.64 C 33.998,26.388 34,21.574 34,16"
       id="path1" />
    <circle
       cx="11"
       cy="14"
       r="5"
       fill="#292f33"
       id="circle1" />
    <circle
       cx="25"
       cy="14"
       r="5"
       fill="#292f33"
       id="circle2" />
    <path
       fill="#292f33"
       d="M 19.903,23.062 C 19.651,22.449 18.9,22 18,22 c -0.9,0 -1.652,0.449 -1.903,1.062 A 1.494,1.494 0 0 0 15,24.5 1.5,1.5 0 0 0 16.5,26 c 0.655,0 1.206,-0.422 1.41,-1.007 C 17.94,24.994 17.969,25 18,25 c 0.031,0 0.06,-0.006 0.09,-0.007 a 1.496,1.496 0 1 0 1.813,-1.931"
       id="path2" />
  </g>
</svg>
