<?xml version="1.0" encoding="UTF-8" standalone="no"?>
<svg
   height="22"
   width="22"
   version="1.1"
   id="svg2"
   sodipodi:docname="emblem-stop-hand.svg"
   inkscape:version="1.4.3 (0d15f75042, 2025-12-25)"
   xmlns:inkscape="http://www.inkscape.org/namespaces/inkscape"
   xmlns:sodipodi="http://sodipodi.sourceforge.net/DTD/sodipodi-0.dtd"
   xmlns="http://www.w3.org/2000/svg"
   xmlns:svg="http://www.w3.org/2000/svg">
  <defs
     id="defs2" />
  <sodipodi:namedview
     id="namedview2"
     pagecolor="#505050"
     bordercolor="#ffffff"
     borderopacity="1"
     inkscape:showpageshadow="0"
     inkscape:pageopacity="0"
     inkscape:pagecheckerboard="1"
     inkscape:deskcolor="#505050"
     inkscape:zoom="16"
     inkscape:cx="4.375"
     inkscape:cy="16.59375"
     inkscape:window-width="1536"
     inkscape:window-height="888"
     inkscape:window-x="0"
     inkscape:window-y="0"
     inkscape:window-maximized="1"
     inkscape:current-layer="svg2" />
  <style
     type="text/css"
     id="current-color-scheme">
        .ColorScheme-NegativeText {
            color:#da4453;
        }
        .ColorScheme-Text {
            color:#232629;
        }
    </style>
  <path
     sodipodi:type="star"
     style="fill:#da4453;fill-opacity:1;stroke:#ffffff;stroke-width:0.432566;stroke-miterlimit:4;stroke-dasharray:none;stroke-opacity:1"
     id="path3-6"
     inkscape:flatsided="false"
     sodipodi:sides="8"
     sodipodi:cx="-5.6985869"
     sodipodi:cy="3.6263735"
     sodipodi:r1="4.5419292"
     sodipodi:r2="4.9101939"
     sodipodi:arg1="0.76052767"
     sodipodi:arg2="1.1532268"
     inkscape:rounded="0"
     inkscape:randomized="0"
     d="m -2.4080846,6.7571427 -1.2992222,1.3575276 -1.8783318,0.052228 -1.8786058,0.041228 -1.3651117,-1.2912505 -1.3575279,-1.2992222 -0.05223,-1.8783317 -0.04123,-1.8786058 1.2912507,-1.36511176 1.2992223,-1.35752758 1.8783317,-0.0522279 1.8786058,-0.0412281 1.3651118,1.29125043 1.3575275,1.29922219 0.052228,1.8783318 0.041228,1.8786057 z"
     inkscape:transform-center-x="0.62322786"
     inkscape:transform-center-y="-0.4777855"
     transform="matrix(2.3111017,0.05650603,-0.05650581,2.3111107,24.374925,2.9410539)" />
  <path
     id="path4236-1-58-5-6"
     d="m 11.147945,5.1519957 c -0.447147,0.026738 -0.828872,0.4596629 -0.799859,0.9062412 l 0.23097,4.0357021 c 0.01137,0.201388 -0.169529,0.242917 -0.195699,0.08875 L 9.7621297,6.4496329 C 9.7006897,6.0275169 9.2808492,5.6895964 8.8553197,5.7208854 8.3871236,5.7629832 8.0105186,6.2527972 8.0907321,6.7164421 l 0.8533344,5.1200069 q 0.00455,0.108657 0.03584,0.213333 c -0.033564,0.134827 -0.053476,0.230969 -0.053476,0.230969 C 6.0819825,9.4363033 5.388506,11.480892 5.388506,11.480892 c 1.933087,1.305033 3.1055684,5.379421 4.764451,5.368612 l 5.030692,-0.01764 c 0,0 0.187734,-4.013516 0.551254,-5.475562 L 16.588237,7.9253311 C 16.724771,7.4019543 16.23837,6.8182734 15.699062,6.8586646 A 0.87608998,0.87608998 0 0 0 14.916839,7.516301 l -0.728747,2.897924 c -0.03983,0.157013 -0.07737,0.09387 -0.07111,-0.03584 l 0.213333,-4.3201441 c 0.03129,-0.4824184 -0.424391,-0.9375301 -0.90681,-0.9062412 -0.416996,0.0256 -0.783361,0.3999294 -0.799859,0.8174944 l -0.195698,3.9469562 c -0.0097,0.2002487 -0.147911,0.2047997 -0.159858,-0.01821 L 12.054756,5.970059 C 12.036551,5.5172229 11.600782,5.1235513 11.147945,5.1525647 Z"
     style="fill:#ffffff;fill-opacity:1;stroke-width:0.569;stroke-dasharray:none" />
</svg>
